<svg width="980" height="990" viewBox="0 0 980 990" fill="none" xmlns="http://www.w3.org/2000/svg">
  <path fill-rule="evenodd" clip-rule="evenodd" d="M980 10H0V0H980V10ZM980 30H0V20H980V30ZM980 50H0V40H980V50ZM980 70H0V60H980V70ZM980 90H0V80H980V90ZM980 110H0V100H980V110ZM980 130H0V120H980V130ZM980 150H0V140H980V150ZM980 170H0V160H980V170ZM980 190H0V180H980V190ZM980 210H0V200H980V210ZM980 230H0V220H980V230ZM980 250H0V240H980V250ZM980 270H0V260H980V270ZM980 290H0V280H980V290ZM980 310H0V300H980V310ZM980 330H0V320H980V330ZM980 350H0V340H980V350ZM980 370H0V360H980V370ZM980 390H0V380H980V390ZM980 410H0V400H980V410ZM980 430H0V420H980V430ZM980 450H0V440H980V450ZM980 470H0V460H980V470ZM980 490H0V480H980V490ZM980 510H0V500H980V510ZM980 530H0V520H980V530ZM980 550H0V540H980V550ZM980 570H0V560H980V570ZM980 590H0V580H980V590ZM980 610H0V600H980V610ZM980 630H0V620H980V630ZM980 650H0V640H980V650ZM980 670H0V660H980V670ZM980 690H0V680H980V690ZM980 710H0V700H980V710ZM980 730H0V720H980V730ZM980 750H0V740H980V750ZM980 770H0V760H980V770ZM980 790H0V780H980V790ZM980 810H0V800H980V810ZM980 830H0V820H980V830ZM980 850H0V840H980V850ZM980 870H0V860H980V870ZM980 890H0V880H980V890ZM980 910H0V900H980V910ZM980 930H0V920H980V930ZM980 950H0V940H980V950ZM980 970H0V960H980V970ZM980 990H0V980H980V990Z" fill="black"/>
</svg>